<svg width="20" height="21" viewBox="0 0 20 21" fill="none" xmlns="http://www.w3.org/2000/svg">
<path d="M14.59 6.0424L8 12.6324L4.41 9.0524L3 10.4624L8 15.4624L16 7.4624L14.59 6.0424ZM10 0.462402C4.48 0.462402 0 4.9424 0 10.4624C0 15.9824 4.48 20.4624 10 20.4624C15.52 20.4624 20 15.9824 20 10.4624C20 4.9424 15.52 0.462402 10 0.462402ZM10 18.4624C5.58 18.4624 2 14.8824 2 10.4624C2 6.0424 5.58 2.4624 10 2.4624C14.42 2.4624 18 6.0424 18 10.4624C18 14.8824 14.42 18.4624 10 18.4624Z" fill="#129C4A"/>
</svg>
