<svg width="598" height="713" viewBox="0 0 598 713" fill="none" xmlns="http://www.w3.org/2000/svg">
<path d="M383.775 544.449H94.5362C88.038 544.449 83.6968 537.767 86.3392 531.84L291.56 71.855C292.989 68.6219 296.197 66.5474 299.757 66.5474H588.996C595.494 66.5474 599.835 73.229 597.193 79.1563L391.972 539.141C390.543 542.375 387.335 544.449 383.775 544.449Z" fill="url(#paint0_linear_1_1551)"/>
<path d="M471.459 220.011L564.807 10.8038C567.072 5.7387 563.351 0 557.796 0H295.871C286.164 0 277.347 5.71176 273.383 14.5758L178.633 226.962C176.368 232.027 180.089 237.765 185.644 237.765H444.063C455.9 237.765 466.632 230.814 471.459 220.011Z" fill="white"/>
<path d="M437.567 363.37L530.915 154.164C533.18 149.099 529.459 143.36 523.904 143.36H262.006C252.299 143.36 243.482 149.072 239.519 157.936L144.768 370.321C142.503 375.387 146.224 381.125 151.779 381.125H410.199C422.036 381.125 432.767 374.174 437.567 363.37Z" stroke="white" stroke-width="1.1086" stroke-miterlimit="10"/>
<path opacity="0.39" d="M318.872 289.468H330.817L298.677 352.189H104.376L112.223 336.859" stroke="#D0EFE1" stroke-width="0.5543" stroke-miterlimit="10"/>
<path d="M341.504 115.73C366.123 94.4053 373.082 62.1341 357.046 43.6503C341.011 25.1665 308.053 27.4696 283.434 48.7945C258.814 70.1193 251.855 102.391 267.891 120.874C283.927 139.358 316.884 137.055 341.504 115.73Z" fill="#E6F4FF"/>
<path d="M338.075 111.779C359.791 92.9691 365.931 64.5045 351.787 48.2019C337.644 31.8993 308.574 33.9322 286.857 52.7425C265.141 71.5528 259.001 100.017 273.145 116.32C287.288 132.623 316.358 130.59 338.075 111.779Z" fill="#D0EFE1"/>
<path d="M313.319 91.2803C313.319 91.2803 289.618 95.1869 279.48 99.1744C272.604 103.323 271.526 106.61 269.881 111.541C269.881 111.541 269.854 111.568 269.854 111.595C275.355 121.213 285.843 127.329 299.541 127.329C317.229 127.329 335.43 117.118 347.078 102.3C340.741 93.0315 313.319 91.2803 313.319 91.2803Z" fill="#079339"/>
<path d="M304.99 81.2039L300.892 98.4469C300.38 100.602 301.458 102.407 303.507 102.731C306.716 103.243 311.812 103.216 317.232 99.7401C318.877 98.6894 319.982 96.9112 320.09 95.2408C320.656 87.185 322.301 70.6694 322.301 70.6694L304.99 81.2039Z" fill="#FF8D68"/>
<path d="M301.292 62.91C301.292 62.91 290.156 85.4337 292.313 91.4958C294.821 95.6179 317.201 86.3498 320.868 80.3147C324.535 74.2796 332.948 63.3411 326.396 56.4978C319.843 49.6544 309.705 51.9984 301.292 62.91Z" fill="#FF8D68"/>
<path d="M301.296 62.9101C301.296 62.9101 299.327 54.9621 306.068 50.2741C312.809 45.5862 321.464 46.5292 324.565 51.2171C327.666 55.9051 327.936 56.6056 327.936 56.6056C327.936 56.6056 331.252 57.3061 332.358 60.8355C333.463 64.3649 326.453 73.2559 323.595 75.8424C320.736 78.4288 321.33 78.4827 321.33 78.4827L320.386 77.2433C320.386 77.2433 320.925 70.4539 322.3 66.4664C322.678 64.3649 320.251 61.3205 316.018 60.62C311.758 59.8925 310.194 63.853 301.296 62.9101Z" fill="#7E3636"/>
<path d="M323.001 73.175C323.001 73.175 324.538 70.2922 327.315 71.1274C330.065 72.0435 324.592 80.638 321.68 80.0453C318.903 79.3179 323.001 73.175 323.001 73.175Z" fill="#FF8D68"/>
<path d="M320.301 92.0076C320.301 92.0076 314.342 98.5815 308.491 100.44C307.466 100.764 305.93 102.784 305.93 102.784L304.851 99.9825C304.851 99.9825 300.833 97.6385 301.993 93.5702L301.184 94.1899L299.027 99.4975C299.027 99.4975 297.436 104.509 297.517 106.368L302.91 103.404C302.91 103.404 306.199 104.509 308.815 103.566C308.815 103.566 309.92 107.311 310.945 107.634C311.942 107.957 320.085 100.279 321.326 97.6385C322.701 94.9712 322.377 92.3309 322.377 92.3309L320.301 92.0076Z" fill="white"/>
<path opacity="0.39" d="M492.087 101.923H378.624C375.146 101.923 373.339 99.0937 374.606 95.6181L390.677 51.5406C391.944 48.065 395.8 45.2361 399.278 45.2361H512.741C516.22 45.2361 518.026 48.065 516.759 51.5406L500.689 95.6181C499.421 99.0937 495.565 101.923 492.087 101.923Z" fill="#D0EFE1"/>
<path d="M498.639 65.1732H400.923L402.649 60.4583H500.365L498.639 65.1732Z" fill="#D0EFE1"/>
<path d="M455.74 76.1927H396.932L398.631 71.4778H457.465L455.74 76.1927Z" fill="#D0EFE1"/>
<path d="M408.529 86.1614H393.295L395.02 81.4465H410.255L408.529 86.1614Z" fill="#D0EFE1"/>
<path d="M383.886 122.183C382.295 126.09 377.846 129.269 373.909 129.269C369.972 129.269 368.085 126.09 369.676 122.183C371.267 118.276 375.716 115.097 379.652 115.097C383.562 115.097 385.476 118.276 383.886 122.183Z" fill="#D0EFE1"/>
<path d="M408.531 122.183C406.94 126.09 402.491 129.269 398.555 129.269C394.618 129.269 392.731 126.09 394.321 122.183C395.912 118.276 400.361 115.097 404.298 115.097C408.235 115.097 410.122 118.276 408.531 122.183Z" fill="#D0EFE1"/>
<path d="M433.2 122.183C431.609 126.09 427.16 129.269 423.223 129.269C419.313 129.269 417.399 126.09 418.99 122.183C420.581 118.276 425.03 115.097 428.966 115.097C432.903 115.097 434.791 118.276 433.2 122.183Z" fill="#D0EFE1"/>
<path d="M457.874 122.183C456.283 126.09 451.834 129.269 447.898 129.269C443.988 129.269 442.073 126.09 443.664 122.183C445.255 118.276 449.704 115.097 453.641 115.097C457.55 115.097 459.438 118.276 457.874 122.183Z" fill="#FF8D02"/>
<path opacity="0.39" d="M482.52 122.183C480.929 126.09 476.48 129.269 472.543 129.269C468.634 129.269 466.719 126.09 468.31 122.183C469.901 118.276 474.35 115.097 478.286 115.097C482.223 115.097 484.111 118.276 482.52 122.183Z" fill="#D0EFE1"/>
<path opacity="0.39" d="M423.924 143.763L392.62 176.256L360.182 189.107L396.961 216.076L433.901 184.581L423.924 143.763Z" fill="#D0EFE1"/>
<path opacity="0.7" d="M416.509 162.65L392.619 176.256L372.423 189.027L399.818 208.694L425.73 185.039L416.509 162.65Z" fill="#D0EFE1"/>
<path d="M423.924 143.763L392.62 176.256L360.182 189.107L396.853 216.346L433.901 184.581L423.924 143.763Z" stroke="#079339" stroke-width="0.2806" stroke-miterlimit="10"/>
<path d="M409.232 187.599C408.72 188.838 407.291 189.862 406.05 189.862C404.81 189.862 404.19 188.838 404.702 187.599C405.215 186.359 406.644 185.336 407.884 185.336C409.124 185.336 409.744 186.359 409.232 187.599Z" fill="#079339"/>
<path d="M378.438 165.183L406.157 187.087L356.705 189.619" stroke="#079339" stroke-width="0.2806" stroke-miterlimit="10"/>
<path d="M394.804 223.89L407.153 187.087L439.752 183.827" stroke="#079339" stroke-width="0.2806" stroke-miterlimit="10"/>
<path d="M425.76 139.21L407.156 187.087" stroke="#079339" stroke-width="0.2806" stroke-miterlimit="10"/>
<path d="M380.973 164.752C380.11 166.853 377.737 168.551 375.634 168.551C373.531 168.551 372.506 166.853 373.369 164.752C374.232 162.65 376.605 160.953 378.708 160.953C380.811 160.953 381.809 162.65 380.973 164.752Z" fill="#D0EFE1"/>
<path d="M358.538 189.646C357.676 191.748 355.303 193.445 353.2 193.445C351.097 193.445 350.072 191.748 350.935 189.646C351.798 187.545 354.17 185.848 356.274 185.848C358.377 185.848 359.401 187.545 358.538 189.646Z" fill="#FF8D02"/>
<path d="M398.392 224.483C397.529 226.584 395.156 228.282 393.053 228.282C390.95 228.282 389.925 226.584 390.788 224.483C391.651 222.381 394.024 220.684 396.127 220.684C398.23 220.684 399.255 222.381 398.392 224.483Z" fill="#D0EFE1"/>
<path d="M444.201 183.881C443.338 185.982 440.965 187.68 438.862 187.68C436.759 187.68 435.734 185.982 436.597 183.881C437.46 181.779 439.833 180.082 441.936 180.082C444.012 180.055 445.037 181.779 444.201 183.881Z" fill="#D0EFE1"/>
<path d="M429.992 137.944C429.129 140.046 426.756 141.743 424.653 141.743C422.55 141.743 421.525 140.046 422.388 137.944C423.251 135.843 425.623 134.146 427.727 134.146C429.83 134.146 430.854 135.843 429.992 137.944Z" fill="#FF8D02"/>
<path d="M343.494 169.709H248.501L255.782 151.766H350.748L343.494 169.709Z" fill="#079339"/>
<path opacity="0.39" d="M286.304 210.123H232.188L235.288 202.417H289.404L286.304 210.123Z" fill="#D0EFE1"/>
<path opacity="0.39" d="M278.188 194.712H238.39L245.67 176.768H285.441L278.188 194.712Z" fill="#D0EFE1"/>
<path d="M489.124 386.271L535.61 282.113C536.742 279.58 534.882 276.724 532.131 276.724H401.735C396.909 276.724 392.514 279.58 390.545 283.972L343.359 389.72C342.226 392.252 344.087 395.108 346.864 395.108H475.535C481.386 395.108 486.725 391.66 489.124 386.271Z" fill="white"/>
<path opacity="0.39" d="M462.697 360.522C484.654 342.573 492.708 316.119 480.685 301.435C468.663 286.751 441.117 289.397 419.16 307.346C397.202 325.295 389.149 351.749 401.171 366.433C413.194 381.117 440.74 378.471 462.697 360.522Z" fill="#D0EFE1"/>
<path d="M444.416 338.26C444.416 338.26 465.555 348.768 467.793 358.386C470.031 368.004 460.648 393.384 460.648 393.384H376.602C376.602 393.384 390.381 363.64 401.085 356.635C411.79 349.63 432.471 344.295 432.471 344.295L444.416 338.26Z" fill="#ABC7E0"/>
<path d="M435.733 331.416L429.127 345.642C428.291 347.42 428.804 349.037 430.341 349.522C432.74 350.249 436.758 350.68 441.692 348.228C443.202 347.474 444.389 346.073 444.82 344.672C446.842 337.91 451.372 324.088 451.372 324.088L435.733 331.416Z" fill="#D0EFE1"/>
<path d="M436.436 315.628C436.436 315.628 423.278 333.707 423.79 339.014C424.95 342.732 444.337 336.886 448.381 332.117C452.453 327.321 461.189 318.835 457.387 312.449C453.612 306.064 445.199 307.115 436.436 315.628Z" fill="#D0EFE1"/>
<path d="M437.002 312.961C437.002 312.961 436.786 313.258 436.544 313.662C435.789 314.955 434.656 317.541 437.811 317.703C442.017 317.919 442.017 317.919 442.017 317.919C442.017 317.919 448.785 314.066 451.455 318.134C453.423 322.202 446.979 324.708 447.518 326.729C448.057 328.776 447.787 328.318 446.871 329.45C445.954 330.581 445.226 332.387 442.179 333.761C439.132 335.108 436.732 334.892 433.82 336.482C430.908 338.071 425.3 336.266 424.707 334.892C423.358 333.761 422.576 336.239 421.714 337.829C420.851 339.419 418.181 339.877 420.743 341.897C423.331 343.945 425.219 344.834 429.722 342.113C434.225 339.392 434.36 339.634 438.889 338.476C443.419 337.344 446.79 335.054 448.542 332.225C450.268 329.396 450.834 325.786 452.29 324.412C453.746 323.065 454.555 324.412 453.908 326.001C453.261 327.591 459.436 324.654 460.919 319.885C462.402 315.117 459.813 315.359 459.544 312.638C459.274 309.917 462.375 306.738 459.085 304.259C455.796 301.78 452.695 304.932 451.508 303.343C450.349 301.753 445.226 301.538 441.127 304.932C437.029 308.327 436.813 313.15 436.813 313.15" fill="#079339"/>
<path d="M451.51 324.897C451.51 324.897 453.29 322.607 455.285 323.55C457.253 324.573 451.267 331.363 449.11 330.608C447.088 329.719 451.51 324.897 451.51 324.897Z" fill="#D0EFE1"/>
<path d="M423.304 335.62C423.304 335.62 425.245 328.588 430.126 327.699C435.033 326.783 437.244 329.746 436.92 332.225C436.597 334.704 438.754 336.078 438.754 336.078C438.754 336.078 426.405 341.951 423.304 335.62Z" fill="#079339"/>
<path d="M430.666 526.883L477.151 422.724C478.283 420.191 476.423 417.335 473.673 417.335H343.249C338.423 417.335 334.028 420.191 332.06 424.583L284.873 530.331C283.741 532.864 285.601 535.72 288.351 535.72H417.022C422.927 535.72 428.266 532.271 430.666 526.883Z" fill="white"/>
<path opacity="0.39" d="M404.386 500.986C426.827 482.642 435.059 455.606 422.773 440.599C410.486 425.593 382.334 428.298 359.893 446.643C337.451 464.987 329.219 492.024 341.506 507.03C353.792 522.037 381.945 519.331 404.386 500.986Z" fill="#D0EFE1"/>
<path d="M394.05 461.575C394.05 461.575 400.44 458.53 401.303 462.221C402.166 465.912 399.335 468.553 399.335 468.553C399.335 468.553 405.105 466.963 406.669 471.894C408.206 476.824 403.568 479.168 405.483 480.946C407.397 482.697 411.388 486.469 405.806 492.72C400.225 498.971 392.055 506.137 382.617 501.53C373.153 496.923 376.173 474.426 376.173 474.426L378.492 467.852L394.05 461.575Z" fill="#079339"/>
<path d="M387.878 442.715C387.878 442.715 373.615 443.928 369.112 453.896C364.609 463.865 373.561 464.565 373.561 464.565L387.878 442.715Z" fill="#079339"/>
<path d="M295.255 510.529C296.172 512.172 296.172 512.172 296.172 512.172C296.172 512.172 307.146 525.266 316.934 533.645H337.292C347.915 523.973 362.395 507.134 362.476 506.434C362.557 505.464 375.23 491.696 372.452 486.065C369.648 480.461 366.035 481.35 366.035 481.35C366.035 481.35 361.91 481.916 357.272 486.712C352.634 491.508 329.769 526.937 329.769 526.937C329.769 526.937 326.83 521.656 321.437 517.615C316.017 513.573 300.217 505.06 300.217 505.06C300.217 505.06 301.187 498.216 301.107 496.923C301.026 495.603 297.089 489.649 295.876 490.915C294.689 492.208 297.466 497.812 297.466 497.812C297.466 497.812 294.339 508.885 295.255 510.529Z" fill="#D0EFE1"/>
<path d="M346.192 523.73C346.192 523.73 346.785 528.095 347.972 533.645H388.39C389.28 524.539 391.167 506.218 392.3 501.853C393.81 496.007 392.489 483.56 392.974 480.138C393.459 476.716 383.698 477.983 383.698 477.983L370.972 478.198L368.922 479.087C366.091 480.3 363.557 482.428 361.885 484.961C360.321 487.358 357.975 490.888 354.874 495.495C349.859 499.294 338.777 505.922 339.586 514.274C340.341 522.626 346.192 523.73 346.192 523.73Z" fill="#ABC7E0"/>
<path d="M375.201 470.466C375.201 470.466 363.903 484.422 360.802 502.015C364.496 500.884 375.686 490.619 382.319 484.341C385.097 481.701 385.366 480.246 384.854 477.552C384.611 476.204 385.771 472.513 387.335 468.283C388.359 462.437 375.201 470.466 375.201 470.466Z" fill="#D0EFE1"/>
<path d="M410.66 527.61C410.66 527.61 412.413 530.035 415.325 533.672H433.417C429.939 529.065 427.162 525.32 426.299 524.027C423.333 519.554 402.679 474.507 390.087 480.111C387.768 481.135 379.355 488.221 382.78 496.115C386.177 504.036 410.66 527.61 410.66 527.61Z" fill="#D0EFE1"/>
<path d="M374.691 452.037C372.911 454.273 368.435 460.12 365.793 465.266C363.474 469.765 365.065 473.887 369.379 474.345C375.608 475.019 385.072 473.456 388.2 469.9C392.838 464.619 402.76 455.27 398.716 447.996C394.806 440.937 385.908 441.664 376.309 450.286C375.716 450.851 375.176 451.444 374.691 452.037Z" fill="#D0EFE1"/>
<path d="M378.895 447.43C378.895 447.43 372.667 457.614 390.382 464.134L392.62 465.131C392.62 465.131 400.359 458.988 400.466 452.495C400.574 446.002 397.231 443.631 393.833 442.203C390.436 440.802 381.241 445.005 378.895 447.43Z" fill="#079339"/>
<path d="M389.873 465.589C389.873 465.589 394.348 462.491 394.295 465.347C394.241 468.203 387.958 471.247 387.284 470.062C386.664 468.876 389.873 465.589 389.873 465.589Z" fill="#D0EFE1"/>
<path d="M288.972 440.56H145.337C140.942 440.56 138.812 437.003 140.591 432.585L150.811 407.34C152.59 402.948 157.606 399.365 162.001 399.365H305.636C310.031 399.365 312.161 402.921 310.382 407.34L300.162 432.585C298.383 437.003 293.368 440.56 288.972 440.56Z" fill="#1BBA54"/>
<path d="M287.839 421.969H164.157L166.583 415.988H290.266L287.839 421.969Z" fill="white"/>
<path d="M172.783 24.7601H167.93C167.067 24.7601 166.662 24.0596 167.013 23.1974L168.981 18.3478C169.332 17.4857 170.302 16.7852 171.165 16.7852H176.019C176.881 16.7852 177.286 17.4857 176.935 18.3478L174.967 23.1974C174.643 24.0596 173.646 24.7601 172.783 24.7601Z" fill="#F9FBFC"/>
<path d="M222.612 24.7601H217.759C216.896 24.7601 216.491 24.0596 216.842 23.1974L218.81 18.3478C219.161 17.4857 220.131 16.7852 220.994 16.7852H225.848C226.711 16.7852 227.115 17.4857 226.764 18.3478L224.796 23.1974C224.446 24.0596 223.475 24.7601 222.612 24.7601Z" fill="#BFD9FF"/>
<path d="M163.535 47.6341H158.682C157.819 47.6341 157.414 46.9336 157.765 46.0714L159.733 41.2218C160.084 40.3597 161.054 39.6592 161.917 39.6592H166.771C167.634 39.6592 168.038 40.3597 167.688 41.2218L165.719 46.0714C165.369 46.9605 164.398 47.6341 163.535 47.6341Z" fill="#BFD9FF"/>
<path d="M188.447 47.6341H183.594C182.731 47.6341 182.327 46.9336 182.677 46.0714L184.645 41.2218C184.996 40.3597 185.967 39.6592 186.829 39.6592H191.683C192.546 39.6592 192.95 40.3597 192.6 41.2218L190.631 46.0714C190.281 46.9605 189.31 47.6341 188.447 47.6341Z" fill="#F9FBFC"/>
<path d="M213.364 47.6341H208.511C207.648 47.6341 207.243 46.9336 207.594 46.0714L209.562 41.2218C209.913 40.3597 210.884 39.6592 211.746 39.6592H216.6C217.463 39.6592 217.867 40.3597 217.517 41.2218L215.548 46.0714C215.198 46.9605 214.227 47.6341 213.364 47.6341Z" fill="#F9FBFC"/>
<path d="M233.292 47.6341H228.439C227.576 47.6341 227.171 46.9336 227.522 46.0714L229.49 41.2218C229.841 40.3597 230.811 39.6592 231.674 39.6592H236.528C237.391 39.6592 237.795 40.3597 237.445 41.2218L235.476 46.0714C235.126 46.9605 234.155 47.6341 233.292 47.6341Z" fill="#F9FBFC"/>
<path d="M154.286 70.535H149.433C148.57 70.535 148.166 69.8345 148.516 68.9723L150.484 64.1227C150.835 63.2606 151.806 62.5601 152.668 62.5601H157.522C158.385 62.5601 158.789 63.2606 158.439 64.1227L156.47 68.9723C156.12 69.8614 155.149 70.535 154.286 70.535Z" fill="#F9FBFC"/>
<path d="M134.36 70.535H129.506C128.643 70.535 128.239 69.8345 128.589 68.9723L130.558 64.1227C130.908 63.2606 131.879 62.5601 132.742 62.5601H137.595C138.458 62.5601 138.862 63.2606 138.512 64.1227L136.544 68.9723C136.193 69.8614 135.222 70.535 134.36 70.535Z" fill="#F9FBFC"/>
<path d="M179.198 70.535H174.345C173.482 70.535 173.078 69.8345 173.428 68.9723L175.397 64.1227C175.747 63.2606 176.718 62.5601 177.581 62.5601H182.434C183.297 62.5601 183.701 63.2606 183.351 64.1227L181.382 68.9723C181.032 69.8614 180.034 70.535 179.198 70.535Z" fill="#F9FBFC"/>
<path d="M204.087 70.535H199.233C198.37 70.535 197.966 69.8345 198.316 68.9723L200.285 64.1227C200.635 63.2606 201.606 62.5601 202.469 62.5601H207.322C208.185 62.5601 208.59 63.2606 208.239 64.1227L206.271 68.9723C205.947 69.8614 204.95 70.535 204.087 70.535Z" fill="#BFD9FF"/>
<path d="M145.01 93.4358H140.156C139.294 93.4358 138.889 92.7353 139.24 91.8732L141.208 87.0236C141.559 86.1614 142.529 85.4609 143.392 85.4609H148.246C149.108 85.4609 149.513 86.1614 149.162 87.0236L147.194 91.8732C146.87 92.7353 145.873 93.4358 145.01 93.4358Z" fill="#F9FBFC"/>
<path d="M174.781 474.265H167.933C166.719 474.265 166.126 473.295 166.611 472.082L169.389 465.239C169.874 464.027 171.249 463.057 172.462 463.057H179.311C180.525 463.057 181.118 464.027 180.632 465.239L177.855 472.082C177.37 473.295 175.995 474.265 174.781 474.265Z" fill="#4385FF"/>
<path d="M244.994 474.265H238.145C236.932 474.265 236.338 473.295 236.824 472.082L239.601 465.239C240.086 464.027 241.461 463.057 242.675 463.057H249.524C250.737 463.057 251.33 464.027 250.845 465.239L248.068 472.082C247.582 473.295 246.207 474.265 244.994 474.265Z" fill="#4385FF"/>
<path d="M161.732 506.542H154.883C153.67 506.542 153.076 505.572 153.562 504.359L156.339 497.516C156.824 496.304 158.199 495.334 159.413 495.334H166.262C167.475 495.334 168.068 496.304 167.583 497.516L164.806 504.359C164.32 505.572 162.945 506.542 161.732 506.542Z" fill="#BFD9FF"/>
<path d="M196.837 506.542H189.988C188.775 506.542 188.182 505.572 188.667 504.359L191.444 497.516C191.93 496.304 193.305 495.334 194.518 495.334H201.367C202.58 495.334 203.174 496.304 202.688 497.516L199.911 504.359C199.426 505.572 198.051 506.542 196.837 506.542Z" fill="#FF8D02"/>
<path d="M231.944 506.542H225.095C223.882 506.542 223.289 505.572 223.774 504.359L226.551 497.516C227.037 496.304 228.412 495.334 229.625 495.334H236.474C237.687 495.334 238.281 496.304 237.795 497.516L235.018 504.359C234.533 505.572 233.157 506.542 231.944 506.542Z" fill="#BFD9FF"/>
<path d="M260.042 506.542H253.194C251.98 506.542 251.387 505.572 251.872 504.359L254.65 497.516C255.135 496.304 256.51 495.334 257.723 495.334H264.572C265.786 495.334 266.379 496.304 265.893 497.516L263.116 504.359C262.631 505.572 261.256 506.542 260.042 506.542Z" fill="#BFD9FF"/>
<path d="M148.681 538.818H141.832C140.619 538.818 140.025 537.848 140.511 536.636L143.288 529.793C143.773 528.58 145.149 527.61 146.362 527.61H153.211C154.424 527.61 155.017 528.58 154.532 529.793L151.755 536.636C151.269 537.848 149.894 538.818 148.681 538.818Z" fill="#BFD9FF"/>
<path d="M120.583 538.818H113.734C112.521 538.818 111.928 537.848 112.413 536.636L115.19 529.793C115.675 528.58 117.051 527.61 118.264 527.61H125.113C126.326 527.61 126.919 528.58 126.434 529.793L123.657 536.636C123.171 537.848 121.796 538.818 120.583 538.818Z" fill="#BFD9FF"/>
<path d="M183.788 538.818H176.939C175.725 538.818 175.132 537.848 175.618 536.636L178.395 529.793C178.88 528.58 180.255 527.61 181.469 527.61H188.317C189.531 527.61 190.124 528.58 189.639 529.793L186.861 536.636C186.376 537.848 185.001 538.818 183.788 538.818Z" fill="#BFD9FF"/>
<path d="M218.893 538.818H212.045C210.831 538.818 210.238 537.848 210.724 536.636L213.501 529.793C213.986 528.58 215.361 527.61 216.575 527.61H223.423C224.637 527.61 225.23 528.58 224.745 529.793L221.967 536.636C221.482 537.848 220.107 538.818 218.893 538.818Z" fill="#FF8D02"/>
<path d="M135.626 571.095H128.777C127.564 571.095 126.971 570.125 127.456 568.913L130.233 562.07C130.719 560.857 132.094 559.887 133.307 559.887H140.156C141.369 559.887 141.963 560.857 141.477 562.07L138.7 568.913C138.215 570.125 136.839 571.095 135.626 571.095Z" fill="#FF8D02"/>
<path opacity="0.39" d="M294.2 338.368H99.9L132.041 275.646H326.341L294.2 338.368Z" fill="#D0EFE1"/>
<path d="M277.893 323.639C289.86 313.081 292.88 296.963 284.64 287.638C276.4 278.314 260.019 279.313 248.052 289.871C236.086 300.43 233.065 316.548 241.306 325.872C249.546 335.197 265.927 334.197 277.893 323.639Z" fill="#73A5FF"/>
<path d="M256.399 319.697C255.59 319.697 254.862 319.4 254.403 318.781L247.797 309.998C246.881 308.785 247.366 306.792 248.903 305.552C250.44 304.34 252.408 304.34 253.352 305.552L258.286 312.126L275.893 298.035C277.43 296.823 279.399 296.823 280.342 298.035C281.259 299.248 280.774 301.241 279.237 302.481L258.852 318.781C258.071 319.4 257.208 319.697 256.399 319.697Z" fill="white"/>
<path d="M109.85 156.292C109.85 161.222 106.237 165.21 101.788 165.21C97.3393 165.21 93.7262 161.222 93.7262 156.292C93.7262 151.361 97.3393 147.374 101.788 147.374C106.237 147.374 109.85 151.361 109.85 156.292Z" stroke="#505E83" stroke-width="0.5192" stroke-miterlimit="10"/>
<path d="M25.374 204.492C25.374 204.492 12.5123 205.354 2.91326 218.313C-6.68581 231.273 7.22744 278.826 48.5627 298.035C75.4725 308.597 77.3869 284.591 70.6729 267.779C63.959 250.967 44.4643 208.426 25.374 204.492Z" fill="white"/>
<path d="M29.3083 677.706C29.3083 677.706 32.1125 671.724 42.4666 673.314C52.8476 674.904 54.034 676.897 55.2474 682.097C56.4338 687.27 60.0469 692.874 62.4197 694.059C64.8195 695.245 73.5826 701.226 80.7819 702.439C87.9543 703.624 88.7632 708.016 87.1723 710.009C85.5815 712.003 58.456 713.593 52.4701 712.811C52.4701 712.811 32.1125 712.407 27.34 710.817C22.5404 709.201 28.9308 679.699 29.3083 677.706Z" fill="#16142A"/>
<path d="M81.3233 677.706C81.3233 677.706 84.1276 671.724 94.4816 673.314C104.863 674.904 106.049 676.897 107.262 682.097C108.449 687.27 112.062 692.874 114.435 694.059C116.834 695.245 125.598 701.226 132.797 702.439C139.969 703.624 140.778 708.016 139.187 710.009C137.596 712.003 110.471 713.593 104.485 712.811C104.485 712.811 84.1276 712.407 79.355 710.817C74.5285 709.201 80.9189 679.699 81.3233 677.706Z" fill="#16142A"/>
<path d="M19.7115 529.254C19.7115 529.254 16.6646 512.738 34.137 507.188C51.5825 501.638 54.899 509.694 60.1839 524.755C65.4688 539.815 55.708 682.016 55.708 682.016C55.708 682.016 34.4336 682.501 29.2836 679.457C29.2836 679.457 15.0737 585.078 16.1253 562.097C17.2039 539.142 19.7115 529.254 19.7115 529.254Z" fill="#2B3554"/>
<path d="M101.438 162.354C101.438 162.354 105.51 167.877 105.51 170.76C105.51 173.643 99.9822 173.643 99.9822 173.643L101.438 162.354Z" fill="#FF7759"/>
<path d="M81.7548 106.125C81.7548 106.125 93.5649 109.143 100.252 127.248C106.939 145.353 102.49 183.854 98.0139 188.38C93.5649 192.906 80.0022 191.182 61.2355 184.985C41.3902 178.438 34.6763 157.828 31.144 144.222C24.3492 118.196 47.0256 91.4149 81.7548 106.125Z" fill="#FF8D68"/>
<path d="M39.4207 206.108L48.9928 171.811C48.9928 171.811 68.137 166.234 80.1088 178.978L84.0994 184.555V206.89C84.0994 206.89 64.1463 210.877 39.4207 206.108Z" fill="#FF8D68"/>
<path d="M12.6735 390.69C12.6735 390.69 5.50121 432.558 12.6735 480.408C19.8459 528.257 34.2175 533.026 47.3758 533.026C60.534 533.026 64.1472 494.741 66.52 478.01C68.9197 461.252 78.4918 403.865 60.534 390.69C42.6032 377.542 22.2726 376.357 12.6735 390.69Z" fill="#2B3554"/>
<path d="M62.9613 446.918C62.9613 446.918 48.5897 408.633 73.7468 391.902C98.8769 375.144 118.048 377.542 124.034 405.05C130.02 432.558 131.206 527.044 122.848 546.2C114.435 565.329 84.5053 535.424 62.9613 446.918Z" fill="#2B3F63"/>
<path d="M34.3534 205.92C34.3534 205.92 37.0228 196.544 39.4226 195.735C41.8223 194.927 71.3475 191.748 87.31 201.312C94.4824 206.89 93.7004 210.877 93.7004 210.877C93.7004 210.877 46.0556 201.744 34.3534 205.92Z" fill="white"/>
<path d="M122.092 390.69C122.092 390.69 124.492 396.455 123.063 398.368C121.148 400.281 66.8436 419.491 9.65369 405.562C8.683 405.562 11.0828 395.97 11.0828 395.97L122.092 390.69Z" fill="#079339"/>
<path d="M9.08704 304.178C7.49619 293.024 2.69665 237.981 4.28751 230.006C5.77051 222.543 12.1609 208.83 25.3461 204.465C26.2629 204.169 27.2336 203.899 28.2312 203.684C28.2312 203.684 77.7095 200.504 112.816 215.646C112.816 215.646 124.842 225.615 127.053 276.455C127.053 276.455 126.406 285.022 124.465 303.289C122.55 321.529 125.435 334.973 128.32 353.24C131.205 371.48 136.976 389.747 115.836 393.573C95.6404 397.425 39.9065 407.017 7.22655 397.425C0.485635 392.63 10.1117 370.537 10.1117 353.24C10.1117 335.943 9.08704 304.178 9.08704 304.178Z" fill="#1BBA54"/>
<path d="M85.7209 531.84C85.7209 531.84 84.5345 515.082 102.492 511.499C120.45 507.915 122.85 516.294 126.436 531.84C130.022 547.386 108.748 682.986 108.748 682.986C108.748 682.986 85.2626 684.333 80.463 680.75C80.463 680.75 74.9624 586.856 78.5756 564.117C82.1078 541.405 85.7209 531.84 85.7209 531.84Z" fill="#2B3F63"/>
<path d="M58.16 437.946C58.16 437.946 74.9314 491.777 87.4964 518.073" stroke="#2A2E59" stroke-width="0.6659" stroke-miterlimit="10"/>
<path d="M92.2962 528.85C92.2962 528.85 102.461 522.868 112.654 528.85" stroke="#2A2E59" stroke-width="0.6659" stroke-miterlimit="10"/>
<path d="M90.4918 535.423C90.4918 535.423 98.8775 530.628 113.249 540.812" stroke="#2A2E59" stroke-width="0.6659" stroke-miterlimit="10"/>
<path d="M27.6366 521.683C27.6366 521.683 34.2157 515.702 49.1806 522.276" stroke="#2A2E59" stroke-width="0.6659" stroke-miterlimit="10"/>
<path d="M32.4379 527.664C32.4379 527.664 42.01 522.868 50.9889 530.062" stroke="#2A2E59" stroke-width="0.6659" stroke-miterlimit="10"/>
<path d="M54.5731 537.229L50.9869 659.223" stroke="#2A2E59" stroke-width="0.6659" stroke-miterlimit="10"/>
<path d="M104.057 434.956C104.057 434.956 117.619 442.931 123.201 430.16" stroke="#2A2E59" stroke-width="0.6659" stroke-miterlimit="10"/>
<path d="M117.615 436.545C117.615 436.545 124.006 485.984 122.415 518.665" stroke="#2A2E59" stroke-width="0.6659" stroke-miterlimit="10"/>
<path d="M76.4431 180.486C76.4431 180.486 80.6224 191.263 94.6974 189.458" stroke="#E66657" stroke-width="0.6659" stroke-miterlimit="10"/>
<path d="M94.4814 114.047C94.4814 114.047 101.303 123.423 101.735 128.946C102.166 134.469 93.2141 140.019 91.9469 143.414C90.6796 146.808 93.5916 151.092 92.3244 153.221C91.0571 155.349 90.6526 159.714 90.6526 159.714L91.084 164.536C91.2458 166.288 90.0594 167.904 88.3068 168.254L87.2821 168.47C85.7991 168.766 84.3431 167.985 83.8038 166.584C82.2669 162.731 79.1122 155.538 76.6315 154.918C73.2341 154.056 69.8097 160.037 68.5424 163.001C67.8144 164.671 66.0078 169.224 64.5788 172.862C63.3115 176.041 60.3455 178.223 56.9211 178.466C53.2271 178.735 48.805 178.924 47.1872 178.439C44.1942 177.576 28.9328 149.368 28.5014 135.735C28.07 122.102 37.4533 108.497 47.2411 104.24C56.975 99.9827 76.1731 96.157 94.4814 114.047Z" fill="#7E3636"/>
<path d="M25.4542 232.404C25.4542 236.23 41.5245 294.048 38.963 304.259C36.4014 314.47 29.3639 385.894 29.3639 385.894" stroke="#6060E7" stroke-width="0.6659" stroke-miterlimit="10"/>
<path d="M69.9441 95.4834C69.9441 95.4834 79.3275 95.8337 82.5631 91.1726C85.7987 86.4847 96.2606 85.407 103.837 92.9778C111.414 100.549 111.037 114.585 104.565 119.624C104.565 119.624 112.142 118.196 113.221 123.584C114.299 129 104.943 137.271 93.753 139.803C93.753 139.803 75.7413 134.765 70.3216 137.998C64.9019 141.231 28.501 137.648 28.501 137.648C28.501 137.648 20.5736 130.428 22.7307 123.934C24.8878 117.441 27.0449 124.285 27.0449 124.285C27.0449 124.285 25.2384 115.286 37.1293 102.327C49.0473 89.3675 65.6299 96.5611 69.9441 95.4834Z" fill="#7E3636"/>
<path d="M246.934 288.525L272.523 289.602C272.523 289.602 271.795 292.135 267.831 292.835C263.868 293.563 249.092 295.368 249.092 295.368L246.934 288.525Z" fill="#EB7754"/>
<path d="M250.172 293.94C250.172 293.94 258.828 292.512 260.634 292.862C262.441 293.213 264.247 303.666 264.247 303.666L257.399 310.86C257.399 310.86 254.864 309.782 257.399 305.822L258.828 303.289L248.366 299.329L250.172 293.94Z" fill="#FF8D68"/>
<path d="M225.31 300.056L236.123 298.628C236.123 298.628 245.129 289.629 246.935 288.552C248.742 287.474 257.748 301.511 258.826 303.316C258.826 304.744 253.407 309.432 248.014 310.159C242.594 310.887 240.815 309.432 240.815 309.432L228.924 314.12L225.31 300.056Z" fill="#FF8D68"/>
<path d="M112.844 215.673C112.844 215.673 88.7119 215.43 89.4129 244.959C90.141 274.488 140.59 322.741 154.287 328.507C167.985 334.273 226.388 318.431 231.431 315.548C236.473 312.665 235.044 300.433 227.116 297.55L167.284 294.668C167.284 294.668 129.778 218.071 112.844 215.673Z" fill="white"/>
<path d="M168.226 299.463C168.226 299.463 175.425 307.142 173.511 317.218" stroke="#A6D0F4" stroke-width="0.5347" stroke-miterlimit="10"/>
<path d="M172.081 298.009C172.081 298.009 184.107 301.861 185.051 314.821" stroke="#A6D0F4" stroke-width="0.5347" stroke-miterlimit="10"/>
<path d="M109.852 156.292H84.8568" stroke="#505E83" stroke-width="0.5192" stroke-miterlimit="10"/>
<path d="M87.7956 159.256C87.7956 159.256 86.0969 151.901 79.8683 155.295C73.6397 158.69 81.0008 176.229 86.0969 175.098C91.1931 173.993 88.9281 162.085 87.7956 159.256Z" fill="#FF7759"/>
<path d="M35.7012 124.662C35.7012 124.662 53.0118 120.701 65.2533 133.661" stroke="#663136" stroke-width="0.5347" stroke-miterlimit="10"/>
<path d="M37.9958 122.022C37.9958 122.022 45.4378 114.101 58.1916 117.468" stroke="#663136" stroke-width="0.5347" stroke-miterlimit="10"/>
<path d="M36.3222 128.03C36.3222 128.03 41.6071 128.515 45.2202 134.523" stroke="#663136" stroke-width="0.5347" stroke-miterlimit="10"/>
<path d="M88.6833 93.6782C88.6833 93.6782 105.994 99.0936 102.03 114.936" stroke="#663136" stroke-width="0.5347" stroke-miterlimit="10"/>
<defs>
<linearGradient id="paint0_linear_1_1551" x1="85.5627" y1="305.509" x2="597.999" y2="305.509" gradientUnits="userSpaceOnUse">
<stop stop-color="white" stop-opacity="0.2"/>
<stop offset="1" stop-color="white" stop-opacity="0.7"/>
</linearGradient>
</defs>
</svg>
