<svg width="49" height="44" viewBox="0 0 49 44" fill="none" xmlns="http://www.w3.org/2000/svg">
<path d="M23.2381 17.9921H10.894C9.12567 17.9921 7.68716 19.4306 7.68716 21.1989V29.7149C7.68716 31.4832 9.12567 32.9217 10.894 32.9217H23.2381C25.0064 32.9217 26.4449 31.4832 26.4449 29.7149V21.1989C26.4449 19.4306 25.0064 17.9921 23.2381 17.9921V17.9921ZM24.5309 29.7149C24.5309 30.4277 23.9509 31.0077 23.2381 31.0077H10.894C10.1812 31.0077 9.60122 30.4277 9.60122 29.7149V21.1989C9.60122 20.4861 10.1812 19.9061 10.894 19.9061H23.2381C23.9509 19.9061 24.5309 20.4861 24.5309 21.1989V29.7149Z" fill="#1BBA54"/>
<path d="M18.8132 24.6279L16.2715 23.1605C15.9754 22.9895 15.6106 22.9895 15.3145 23.1605C15.0183 23.3314 14.8359 23.6474 14.8359 23.9893V26.9241C14.8359 27.266 15.0183 27.582 15.3145 27.7529C15.4625 27.8385 15.6277 27.8811 15.793 27.8811C15.9582 27.8811 16.1234 27.8385 16.2715 27.7529L18.8132 26.2855C19.1093 26.1146 19.2917 25.7985 19.2917 25.4567C19.2917 25.1148 19.1093 24.7988 18.8132 24.6279V24.6279Z" fill="#1BBA54"/>
<path d="M48.4847 6.32878L36.5334 0.108096C36.2564 -0.0360321 35.9267 -0.0360321 35.6497 0.108096L23.6983 6.32878C23.3817 6.49358 23.1832 6.82079 23.1832 7.17767C23.1832 7.53454 23.3817 7.86175 23.6983 8.02655L28.3001 10.4218V12.4413H9.09177C5.55613 12.4413 2.67968 15.3178 2.67968 18.8534V36.5585H0.957029C0.428558 36.5585 0 36.987 0 37.5155C0 40.9984 2.83348 43.8319 6.31639 43.8319H37.5155C40.9984 43.8319 43.8319 40.9984 43.8319 37.5155C43.8319 36.987 43.4034 36.5585 42.8749 36.5585H41.1522V18.8534C41.1522 18.7192 41.1465 18.5853 41.1382 18.4514L43.3 17.5331C43.6534 17.383 43.8829 17.0362 43.8829 16.6523V10.4218L47.0858 8.75466V14.612C47.0858 15.1404 47.5144 15.569 48.0428 15.569C48.5713 15.569 48.9999 15.1404 48.9999 14.612V7.17767C48.9999 6.8207 48.8013 6.49349 48.4847 6.32878V6.32878ZM39.2382 36.5585H26.2226C25.6941 36.5585 25.2656 36.987 25.2656 37.5155C25.2656 38.044 25.6941 38.4725 26.2226 38.4725H41.8131C41.3748 40.4412 39.6143 41.9178 37.5155 41.9178H6.31639C4.21753 41.9178 2.45708 40.4412 2.01885 38.4725H17.6093C18.1378 38.4725 18.5664 38.044 18.5664 37.5155C18.5664 36.987 18.1378 36.5585 17.6093 36.5585H4.59374V18.8534C4.59374 16.3732 6.61154 14.3554 9.09177 14.3554H28.3001V16.6523C28.3001 17.0362 28.5295 17.383 28.883 17.5331L35.7175 20.4361C35.837 20.4868 35.9643 20.5122 36.0916 20.5122C36.2189 20.5122 36.3461 20.4868 36.4657 20.4361L39.2382 19.2584V36.5585ZM41.9689 16.019L36.0916 18.5155L30.2142 16.019V11.4181L35.6497 14.2472C35.7882 14.3193 35.9399 14.3554 36.0916 14.3554C36.2433 14.3554 36.3949 14.3193 36.5334 14.2472L41.9689 11.4181V16.019ZM36.0916 12.3194L26.213 7.17767L36.0916 2.03584L45.97 7.17767L36.0916 12.3194Z" fill="#1BBA54"/>
<path d="M35.4132 6.50087C35.2352 6.67888 35.1328 6.92579 35.1328 7.17749C35.1328 7.42919 35.2351 7.6761 35.4132 7.85401C35.5912 8.03202 35.8381 8.13452 36.0898 8.13452C36.3415 8.13452 36.5885 8.03211 36.7664 7.85401C36.9444 7.6761 37.0469 7.42919 37.0469 7.17749C37.0469 6.92579 36.9445 6.67888 36.7664 6.50087C36.5885 6.32286 36.3424 6.22046 36.0898 6.22046C35.8381 6.22055 35.5912 6.32286 35.4132 6.50087Z" fill="#1BBA54"/>
<path d="M35.5716 31.0076H30.3398C29.8114 31.0076 29.3828 31.4361 29.3828 31.9646C29.3828 32.4931 29.8114 32.9216 30.3398 32.9216H35.5716C36.1001 32.9216 36.5287 32.4931 36.5287 31.9646C36.5287 31.4361 36.1001 31.0076 35.5716 31.0076V31.0076Z" fill="#1BBA54"/>
<path d="M35.5716 26.4141H30.3398C29.8114 26.4141 29.3828 26.8426 29.3828 27.3711C29.3828 27.8996 29.8114 28.3281 30.3398 28.3281H35.5716C36.1001 28.3281 36.5287 27.8996 36.5287 27.3711C36.5287 26.8426 36.1001 26.4141 35.5716 26.4141V26.4141Z" fill="#1BBA54"/>
<path d="M21.9109 36.5586C21.6592 36.5586 21.4123 36.6609 21.2343 36.839C21.0563 37.0171 20.9539 37.2629 20.9539 37.5156C20.9539 37.7673 21.0562 38.0142 21.2343 38.1921C21.4123 38.3702 21.6592 38.4727 21.9109 38.4727C22.1626 38.4727 22.4095 38.3702 22.5874 38.1921C22.7655 38.0142 22.8679 37.7673 22.8679 37.5156C22.8679 37.2639 22.7655 37.017 22.5874 36.839C22.4095 36.6609 22.1626 36.5586 21.9109 36.5586Z" fill="#1BBA54"/>
</svg>
